# Blender 4.2.3 LTS
# www.blender.org
mtllib delete_indicator.mtl
o Cube
v 0.875000 0.500000 -0.875000
v 0.875000 -0.500000 -0.875000
v 0.875000 0.500000 0.875000
v 0.875000 -0.500000 0.875000
v -0.875000 0.500000 -0.875000
v -0.875000 -0.500000 -0.875000
v -0.875000 0.500000 0.875000
v -0.875000 -0.500000 0.875000
v -1.000000 -0.375000 0.875000
v -1.000000 0.375000 0.875000
v -1.000000 -0.375000 -0.875000
v -1.000000 0.375000 -0.875000
v 1.000000 -0.375000 -0.875000
v 1.000000 0.375000 -0.875000
v 1.000000 -0.375000 0.875000
v 1.000000 0.375000 0.875000
v 0.875000 -0.375000 1.000000
v 0.875000 0.375000 1.000000
v -0.875000 -0.375000 1.000000
v -0.875000 0.375000 1.000000
v -0.875000 -0.375000 -1.000000
v -0.875000 0.375000 -1.000000
v 0.875000 -0.375000 -1.000000
v 0.875000 0.375000 -1.000000
v -0.875000 -0.375000 0.875000
v 0.875000 -0.375000 0.875000
v -0.875000 0.375000 0.875000
v 0.875000 0.375000 0.875000
v -0.875000 -0.375000 -0.875000
v 0.875000 -0.375000 -0.875000
v -0.875000 0.375000 -0.875000
v 0.875000 0.375000 -0.875000
v 1.000000 0.500000 -1.000000
v 1.000000 0.500000 1.000000
v -1.000000 0.500000 -1.000000
v -1.000000 0.500000 1.000000
v 1.000000 -0.500000 1.000000
v -1.000000 -0.500000 1.000000
v -1.000000 -0.500000 -1.000000
v 1.000000 -0.500000 -1.000000
vn -0.0000 -0.0000 1.0000
vn -1.0000 -0.0000 -0.0000
vn 1.0000 -0.0000 -0.0000
vn -0.0000 -0.0000 -1.0000
vn -0.0000 -1.0000 -0.0000
vn -0.0000 1.0000 -0.0000
vn -0.9970 -0.0344 0.0688
vt 0.437500 0.968750
vt 0.375000 1.000000
vt 0.375000 0.750000
vt 0.437500 0.781250
vt 0.625000 1.000000
vt 0.562500 0.968750
vt 0.625000 0.250000
vt 0.375000 0.250000
vt 0.437500 0.218750
vt 0.562500 0.218750
vt 0.375000 0.000000
vt 0.437500 0.031250
vt 0.328576 0.750000
vt 0.328576 0.500000
vt 0.359375 0.515625
vt 0.359375 0.734375
vt 0.437500 0.531250
vt 0.437500 0.718750
vt 0.375000 0.500000
vt 0.625000 0.750000
vt 0.562500 0.718750
vt 0.625000 0.500000
vt 0.437500 0.468750
vt 0.562500 0.468750
vt 0.437500 0.281250
vt 0.828576 0.750000
vt 0.854768 0.750000
vt 0.854768 0.500000
vt 0.828576 0.500000
vt 0.671424 0.500000
vt 0.645232 0.500000
vt 0.645232 0.750000
vt 0.671424 0.750000
vt 0.375000 0.953576
vt 0.375000 0.979768
vt 0.625000 0.979768
vt 0.625000 0.953576
vt 0.625000 0.770232
vt 0.375000 0.770232
vt 0.375000 0.796424
vt 0.625000 0.796424
vt 0.354768 0.750000
vt 0.354768 0.500000
vt 0.145232 0.500000
vt 0.145232 0.750000
vt 0.171424 0.750000
vt 0.171424 0.500000
vt 0.562500 0.531250
vt 0.375000 0.453576
vt 0.375000 0.479768
vt 0.625000 0.479768
vt 0.625000 0.453576
vt 0.625000 0.270232
vt 0.375000 0.270232
vt 0.375000 0.296424
vt 0.625000 0.296424
vt 0.671424 0.750000
vt 0.828576 0.500000
vt 0.828576 0.750000
vt 0.328576 0.750000
vt 0.562500 0.281250
vt 0.562500 0.031250
vt 0.625000 0.000000
vt 0.562500 0.781250
vt 0.640625 0.515625
vt 0.640625 0.734375
vt 0.859375 0.515625
vt 0.875000 0.500000
vt 0.859375 0.734375
vt 0.875000 0.750000
vt 0.000000 0.000000
vt 0.140625 0.734375
vt 0.125000 0.750000
vt 0.140625 0.515625
vt 0.125000 0.500000
s 0
usemtl Material
f 19/1/1 38/2/1 37/3/1 17/4/1
f 36/5/1 38/2/1 19/1/1 20/6/1
f 35/7/2 39/8/2 11/9/2 12/10/2
f 11/9/2 39/8/2 38/11/2 9/12/2
f 26/13/2 30/14/2 2/15/2 4/16/2
f 13/17/3 15/18/3 37/3/3 40/19/3
f 34/20/3 37/3/3 15/18/3 16/21/3
f 33/22/4 40/19/4 23/23/4 24/24/4
f 40/19/4 39/8/4 21/25/4 23/23/4
f 27/26/5 10/27/5 12/28/5 31/29/5
f 32/30/5 14/31/5 16/32/5 28/33/5
f 25/34/4 9/35/4 10/36/4 27/37/4
f 16/38/4 15/39/4 26/40/4 28/41/4
f 15/42/6 13/43/6 30/14/6 26/13/6
f 11/44/6 9/45/6 25/46/6 29/47/6
f 14/48/3 33/22/3 34/20/3 16/21/3
f 30/49/1 13/50/1 14/51/1 32/52/1
f 12/53/1 11/54/1 29/55/1 31/56/1
f 22/31/5 24/32/5 32/57/5 31/30/5
f 18/27/5 20/28/5 27/58/5 28/59/5
f 32/20/2 24/20/2 23/2/2 30/2/2
f 26/2/2 17/2/2 18/20/2 28/20/2
f 25/47/6 19/44/6 17/45/6 26/46/6
f 30/60/6 23/42/6 21/43/6 29/14/6
f 27/7/3 20/7/3 19/19/3 25/19/3
f 29/19/3 21/19/3 22/7/3 31/7/3
f 40/19/3 33/22/3 14/48/3 13/17/3
f 21/25/4 39/8/4 35/7/4 22/61/4
f 22/61/4 35/7/4 33/22/4 24/24/4
f 10/62/2 36/63/2 35/7/2 12/10/2
f 9/12/2 38/11/2 36/63/2 10/62/2
f 17/4/1 37/3/1 34/20/1 18/64/1
f 18/64/1 34/20/1 36/5/1 20/6/1
f 1/65/6 3/66/6 34/20/6 33/22/6
f 5/67/6 1/65/6 33/22/6 35/68/6
f 7/69/6 5/67/6 35/68/6 36/70/6
f 3/66/6 7/69/6 36/70/6 34/20/6
f 31/30/1 32/57/1 1/65/1 5/67/1
f 34/71/7 3/71/7 1/71/7 32/71/7 28/71/7 16/71/7
f 27/58/4 7/69/4 3/66/4 28/59/4
f 27/58/3 31/30/3 5/67/3 7/69/3
f 8/72/5 4/16/5 37/3/5 38/73/5
f 6/74/5 8/72/5 38/73/5 39/75/5
f 2/15/5 6/74/5 39/75/5 40/19/5
f 4/16/5 2/15/5 40/19/5 37/3/5
f 29/14/1 6/74/1 2/15/1 30/14/1
f 25/46/3 8/72/3 6/74/3 29/14/3
f 25/46/4 26/13/4 4/16/4 8/72/4
