# Blender 4.2.3 LTS
# www.blender.org
mtllib metal_platform.mtl
o Cube
v 0.999375 0.800000 1.000625
v 0.999375 1.000000 1.000625
v 0.999375 0.800000 -0.999375
v 0.999375 1.000000 -0.999375
v -1.000625 0.800000 1.000625
v -1.000625 1.000000 1.000625
v -1.000625 0.800000 -0.999375
v -1.000625 1.000000 -0.999375
v -1.000625 1.000000 -0.799375
v 0.999375 0.800000 -0.799375
v -1.000625 0.800000 -0.799375
v 0.999375 1.000000 -0.799375
v -1.000625 0.800000 0.798125
v 0.999375 1.000000 0.798125
v -1.000625 1.000000 0.798125
v 0.999375 0.800000 0.798125
v 0.799375 1.000000 1.000625
v 0.799375 0.800000 -0.999375
v 0.799375 1.000000 -0.999375
v 0.799375 0.800000 1.000625
v 0.799375 1.000000 -0.799375
v 0.799375 0.800000 -0.799375
v 0.799375 0.800000 0.798125
v 0.799375 1.000000 0.798125
v -0.798125 1.000000 1.000625
v -0.798125 0.800000 -0.999375
v -0.798125 1.000000 -0.799375
v -0.798125 1.000000 0.798125
v -0.798125 1.000000 -0.999375
v -0.798125 0.800000 1.000625
v -0.798125 0.800000 -0.799375
v -0.798125 0.800000 0.798125
v -0.798125 0.000000 -0.999375
v -1.000625 0.000000 -0.999375
v 0.999375 0.000000 -0.799375
v 0.999375 0.000000 -0.999375
v -1.000625 -0.000000 0.798125
v -1.000625 -0.000000 1.000625
v 0.799375 -0.000000 1.000625
v 0.999375 -0.000000 1.000625
v -1.000625 0.000000 -0.799375
v 0.799375 0.000000 -0.799375
v 0.999375 -0.000000 0.798125
v 0.799375 -0.000000 0.798125
v 0.799375 0.000000 -0.999375
v -0.798125 -0.000000 1.000625
v -0.798125 0.000000 -0.799375
v -0.798125 -0.000000 0.798125
v -0.798125 0.200000 1.000625
v -0.798125 0.200000 0.798125
v -1.000625 0.200000 1.000625
v -1.000625 0.200000 0.798125
v 0.799375 0.200000 0.798125
v 0.799375 0.200000 1.000625
v 0.999375 0.200000 1.000625
v 0.999375 0.200000 0.798125
v 0.799375 0.200000 -0.799375
v 0.999375 0.200000 -0.799375
v 0.799375 0.200000 -0.999375
v 0.999375 0.200000 -0.999375
v -1.000625 0.200000 -0.799375
v -0.798125 0.200000 -0.799375
v -0.798125 0.200000 -0.999375
v -1.000625 0.200000 -0.999375
v -0.798125 0.599900 0.798125
v -1.000625 0.599900 0.798125
v -0.798125 0.599900 1.000625
v -1.000625 0.599900 1.000625
v 0.799375 0.599900 1.000625
v 0.999375 0.599900 0.798125
v 0.799375 0.599900 0.798125
v 0.999375 0.599900 1.000625
v 0.999375 0.599900 -0.799375
v 0.799375 0.599900 -0.799375
v 0.799375 0.599900 -0.999375
v 0.999375 0.599900 -0.999375
v -0.798125 0.599900 -0.799375
v -1.000625 0.599900 -0.999375
v -1.000625 0.599900 -0.799375
v -0.798125 0.599900 -0.999375
v -0.798125 0.399967 0.265713
v -1.000625 0.399967 0.265714
v -1.000625 0.299950 -0.000625
v -1.000625 0.399967 -0.266963
v -1.000625 0.500000 -0.000625
v -0.798125 0.299950 -0.000625
v -0.798125 0.399967 -0.266963
v -0.798125 0.500000 -0.000625
v 0.999375 0.399967 -0.266964
v 0.999375 0.299950 -0.000625
v 0.999375 0.500000 -0.000625
v 0.999375 0.399966 0.265714
v 0.799375 0.399827 -0.267335
v 0.799375 0.399970 0.265723
v 0.799375 0.299844 -0.000908
v 0.799375 0.500016 -0.000582
v -0.265714 0.399967 -0.999375
v 0.000625 0.500000 -0.999375
v 0.000625 0.299950 -0.999375
v 0.266964 0.399967 -0.999375
v 0.266963 0.399967 -0.799375
v 0.000624 0.299950 -0.799375
v 0.000625 0.500000 -0.799375
v -0.265714 0.399967 -0.799375
v 0.266964 0.399966 1.000625
v 0.000625 0.299950 1.000625
v 0.000625 0.500000 1.000625
v -0.265714 0.399966 1.000625
v 0.266954 0.399970 0.798125
v 0.000630 0.299948 0.798125
v 0.000693 0.499974 0.798125
v -0.265661 0.399946 0.798125
vn -1.0000 -0.0000 -0.0000
vn -0.0000 -0.0000 -1.0000
vn -0.0000 1.0000 -0.0000
vn 1.0000 -0.0000 -0.0000
vn -0.0000 -0.0000 1.0000
vn -0.0000 -1.0000 -0.0000
vn -0.3516 -0.9362 -0.0000
vn -0.3516 0.9361 -0.0000
vn 0.3515 -0.9362 -0.0000
vn -0.0000 -0.9362 0.3516
vn -0.0000 0.9361 0.3516
vn 0.3516 -0.9362 -0.0000
vn 0.0007 -0.9361 -0.3518
vn -0.0000 0.9361 -0.3516
vn -0.0000 -0.9362 -0.3516
vn 0.0005 -0.9362 -0.3514
vn 0.0001 0.9362 0.3516
vn 0.3516 0.9361 -0.0000
vn -0.3516 0.9362 -0.0001
vn -0.3516 0.9361 -0.0001
vt 0.625000 0.091551
vt 0.625000 0.124844
vt 0.625000 0.025000
vt 0.375000 0.974687
vt 0.625000 0.974688
vt 0.625000 1.000000
vt 0.375000 1.000000
vt 0.375000 0.224687
vt 0.625000 0.224688
vt 0.625000 0.250000
vt 0.375000 0.250000
vt 0.350000 0.725000
vt 0.375000 0.725000
vt 0.375000 0.750000
vt 0.350000 0.750000
vt 0.625000 0.725000
vt 0.625000 0.750000
vt 0.375000 0.475000
vt 0.625000 0.475000
vt 0.625000 0.500000
vt 0.375000 0.500000
vt 0.375000 0.525313
vt 0.625000 0.525312
vt 0.350000 0.525313
vt 0.375000 0.000000
vt 0.625000 0.000000
vt 0.375000 0.025000
vt 0.849687 0.525313
vt 0.875000 0.525313
vt 0.875000 0.725000
vt 0.849687 0.725000
vt 0.625000 0.275313
vt 0.350000 0.500000
vt 0.150313 0.500000
vt 0.150313 0.525312
vt 0.650000 0.725000
vt 0.650000 0.525312
vt 0.150313 0.725000
vt 0.375000 0.275313
vt 0.150313 0.750000
vt 0.625000 0.775000
vt 0.375000 0.775000
vt 0.125000 0.725000
vt 0.125000 0.750000
vt 0.125000 0.525312
vt 0.125000 0.500000
vt 0.783136 0.500000
vt 0.849687 0.500000
vt 0.783129 0.525313
vt 0.849688 0.750000
vt 0.650000 0.750000
vt 0.875000 0.750000
vt 0.875000 0.500000
vt 0.650000 0.500000
vt 0.749844 0.725000
vt 0.749844 0.750000
vt 0.849687 0.658448
vt 0.849687 0.625156
vt 0.783136 0.725000
vt 0.783136 0.750000
vt 0.716551 0.500000
vt 0.716553 0.525313
vt 0.650000 0.591863
vt 0.625000 0.591864
vt 0.749843 0.525313
vt 0.625000 0.475000
vt 0.650000 0.625192
vt 0.849687 0.750000
vt 0.849687 0.725000
vt 0.849687 0.591864
vt 0.875000 0.591864
vt 0.749844 0.500000
vt 0.650000 0.658495
vt 0.625000 0.658449
vt 0.716551 0.725000
vt 0.716551 0.750000
vt 0.625000 0.158136
vt 0.625000 0.124844
vt 0.625000 0.874844
vt 0.625000 0.841551
vt 0.875000 0.658449
vt 0.875000 0.625156
vt 0.875000 0.625156
vt 0.625000 0.625156
vt 0.650000 0.625151
vt 0.625000 0.908136
vt 0.625000 0.874844
vt 0.749844 0.725000
vt 0.625000 0.408449
vt 0.625000 0.375156
vt 0.625000 0.341864
vt 0.749835 0.525313
vt 0.749844 0.500000
s 0
usemtl PlatformMetal
f 84/1/1 85/2/1 11/3/1 79/3/1
f 29/4/2 26/5/2 7/6/2 8/7/2
f 15/8/1 13/9/1 5/10/1 6/11/1
f 21/12/3 12/13/3 4/14/3 19/15/3
f 12/13/4 10/16/4 3/17/4 4/14/4
f 17/18/5 20/19/5 1/20/5 2/21/5
f 14/22/4 16/23/4 10/16/4 12/13/4
f 24/24/3 14/22/3 12/13/3 21/12/3
f 8/25/1 7/26/1 11/3/1 9/27/1
f 32/28/6 13/29/6 11/30/6 31/31/6
f 49/32/5 51/10/5 38/10/5 46/32/5
f 17/33/3 2/21/3 14/22/3 24/24/3
f 2/21/4 1/20/4 16/23/4 14/22/4
f 9/27/1 11/3/1 13/9/1 15/8/1
f 25/34/3 17/33/3 24/24/3 28/35/3
f 22/36/6 10/16/6 16/23/6 23/37/6
f 53/37/2 71/37/2 70/23/2 56/23/2
f 28/35/3 24/24/3 21/12/3 27/38/3
f 25/39/5 30/32/5 20/19/5 17/18/5
f 27/38/3 21/12/3 19/15/3 29/40/3
f 4/14/2 3/17/2 18/41/2 19/42/2
f 9/43/3 27/38/3 29/40/3 8/44/3
f 6/11/5 5/10/5 30/32/5 25/39/5
f 15/45/3 28/35/3 27/38/3 9/43/3
f 6/46/3 25/34/3 28/35/3 15/45/3
f 108/47/7 67/48/7 65/28/7 112/49/7
f 23/37/6 32/28/6 31/31/6 22/36/6
f 19/42/2 18/41/2 26/5/2 29/4/2
f 22/36/6 31/31/6 26/50/6 18/51/6
f 47/31/6 41/30/6 34/52/6 33/50/6
f 46/48/6 38/53/6 37/29/6 48/28/6
f 40/20/6 39/54/6 44/37/6 43/23/6
f 35/16/6 42/36/6 45/51/6 36/17/6
f 45/51/7 42/36/7 102/55/7 99/56/7
f 64/6/2 63/5/2 33/5/2 34/6/2
f 87/57/4 86/58/4 47/31/4 62/31/4
f 61/3/1 64/26/1 34/26/1 41/3/1
f 59/41/2 60/17/2 36/17/2 45/41/2
f 60/17/4 58/16/4 35/16/4 36/17/4
f 104/59/8 97/60/8 63/50/8 62/31/8
f 105/61/9 109/62/9 71/37/9 69/54/9
f 56/23/4 55/20/4 40/20/4 43/23/4
f 51/10/1 52/9/1 37/9/1 38/10/1
f 94/63/10 92/64/10 70/23/10 71/37/10
f 55/20/5 54/19/5 39/19/5 40/20/5
f 68/10/1 66/9/1 52/9/1 51/10/1
f 66/29/2 65/28/2 50/28/2 52/29/2
f 48/28/2 50/28/2 112/49/2 110/65/2
f 67/32/5 68/10/5 51/10/5 49/32/5
f 72/20/5 69/66/5 54/19/5 55/20/5
f 94/63/1 95/67/1 44/37/1 53/37/1
f 70/23/4 72/20/4 55/20/4 56/23/4
f 69/54/1 71/37/1 53/37/1 54/54/1
f 76/17/4 73/16/4 58/16/4 60/17/4
f 75/41/2 76/17/2 60/17/2 59/41/2
f 74/36/1 75/51/1 59/51/1 57/36/1
f 73/16/5 74/36/5 57/36/5 58/16/5
f 80/68/4 77/69/4 62/31/4 63/50/4
f 79/3/1 78/26/1 64/26/1 61/3/1
f 78/6/2 80/5/2 63/5/2 64/6/2
f 77/69/5 79/30/5 61/30/5 62/31/5
f 30/32/5 5/10/5 68/10/5 67/32/5
f 53/37/2 44/37/2 110/65/2 109/62/2
f 52/29/11 50/28/11 81/70/11 82/71/11
f 5/10/1 13/9/1 66/9/1 68/10/1
f 46/48/12 48/28/12 110/65/12 106/72/12
f 16/23/4 1/20/4 72/20/4 70/23/4
f 57/36/1 42/36/1 95/67/1 93/73/1
f 1/20/5 20/19/5 69/66/5 72/20/5
f 89/74/13 93/73/13 74/36/13 73/16/13
f 101/75/12 100/76/12 75/51/12 74/36/12
f 18/41/2 3/17/2 76/17/2 75/41/2
f 3/17/4 10/16/4 73/16/4 76/17/4
f 37/9/1 52/9/1 82/77/1 83/78/1
f 7/6/2 26/5/2 80/5/2 78/6/2
f 11/3/1 7/26/1 78/26/1 79/3/1
f 59/41/2 45/41/2 99/79/2 100/80/2
f 84/81/14 87/57/14 62/31/14 61/30/14
f 48/28/15 37/29/15 83/82/15 86/58/15
f 50/28/4 48/28/4 86/58/4 81/70/4
f 82/71/10 81/70/10 65/28/10 66/29/10
f 83/78/1 82/77/1 85/2/1 84/1/1
f 81/70/4 86/58/4 87/57/4 88/58/4
f 88/58/4 87/57/4 77/69/4 31/31/4
f 83/78/1 84/1/1 61/3/1 41/3/1
f 87/57/15 84/81/15 79/30/15 77/69/15
f 85/2/1 82/77/1 66/9/1 13/9/1
f 85/83/11 88/58/11 31/31/11 11/30/11
f 86/58/10 83/82/10 41/30/10 47/31/10
f 81/70/4 88/58/4 32/28/4 65/28/4
f 88/58/14 85/83/14 13/29/14 32/28/14
f 35/16/4 58/16/4 89/74/4 90/84/4
f 58/16/14 57/36/14 93/73/14 89/74/14
f 92/64/11 94/63/11 53/37/11 56/23/11
f 90/84/4 89/74/4 91/84/4 92/64/4
f 92/64/4 91/84/4 16/23/4 70/23/4
f 96/85/1 94/63/1 71/37/1 23/37/1
f 93/73/1 95/67/1 94/63/1 96/85/1
f 91/84/14 96/85/14 23/37/14 16/23/14
f 91/84/4 89/74/4 73/16/4 10/16/4
f 90/84/10 95/67/10 42/36/10 35/16/10
f 90/84/4 92/64/4 56/23/4 43/23/4
f 95/67/16 90/84/16 43/23/16 44/37/16
f 93/73/1 96/85/1 22/36/1 74/36/1
f 96/85/17 91/84/17 10/16/17 22/36/17
f 42/36/5 57/36/5 101/75/5 102/55/5
f 57/36/18 59/51/18 100/76/18 101/75/18
f 97/86/2 99/79/2 33/5/2 63/5/2
f 98/87/2 97/86/2 80/5/2 26/5/2
f 100/80/2 99/79/2 97/86/2 98/87/2
f 102/55/5 101/75/5 103/88/5 104/59/5
f 104/59/5 103/88/5 31/31/5 77/69/5
f 97/60/7 104/59/7 77/69/7 80/68/7
f 102/55/5 104/59/5 62/31/5 47/31/5
f 103/88/5 101/75/5 74/36/5 22/36/5
f 103/88/18 98/56/18 26/50/18 31/31/18
f 99/56/12 102/55/12 47/31/12 33/50/12
f 100/80/2 98/87/2 18/41/2 75/41/2
f 98/56/8 103/88/8 22/36/8 18/51/8
f 39/19/5 54/19/5 105/89/5 106/90/5
f 54/54/18 53/37/18 109/62/18 105/61/18
f 49/48/4 50/28/4 65/28/4 67/48/4
f 106/90/5 105/89/5 107/90/5 108/91/5
f 108/91/5 107/90/5 30/32/5 67/32/5
f 109/62/2 110/65/2 112/49/2 111/92/2
f 49/32/5 46/32/5 106/90/5 108/91/5
f 111/92/2 112/49/2 65/28/2 32/28/2
f 107/90/5 105/89/5 69/66/5 20/19/5
f 106/72/7 110/65/7 44/37/7 39/54/7
f 20/54/6 30/48/6 32/28/6 23/37/6
f 107/93/18 111/92/18 32/28/18 30/48/18
f 50/28/19 49/48/19 108/47/19 112/49/19
f 109/62/2 111/92/2 23/37/2 71/37/2
f 111/92/20 107/93/20 20/54/20 23/37/20
