# Blender 4.3.0
# www.blender.org
mtllib cubiods.mtl
o Cube
v 0.750000 0.750000 -0.750000
v 0.750000 -0.750000 -0.750000
v 0.750000 0.750000 0.750000
v 0.750000 -0.750000 0.750000
v -0.750000 0.750000 -0.750000
v -0.750000 -0.750000 -0.750000
v -0.750000 0.750000 0.750000
v -0.750000 -0.750000 0.750000
v 0.656250 0.750000 -0.656250
v -0.656250 0.750000 -0.656250
v -0.656250 0.750000 0.656250
v 0.656250 0.750000 0.656250
v 0.656250 -0.656250 0.750000
v 0.656250 0.656250 0.750000
v -0.656250 0.656250 0.750000
v -0.656250 -0.656250 0.750000
v -0.750000 -0.656250 0.656250
v -0.750000 0.656250 0.656250
v -0.750000 0.656250 -0.656250
v -0.750000 -0.656250 -0.656250
v -0.656250 -0.750000 -0.656250
v 0.656250 -0.750000 -0.656250
v 0.656250 -0.750000 0.656250
v -0.656250 -0.750000 0.656250
v 0.750000 -0.656250 -0.656250
v 0.750000 0.656250 -0.656250
v 0.750000 0.656250 0.656250
v 0.750000 -0.656250 0.656250
v -0.656250 -0.656250 -0.750000
v -0.656250 0.656250 -0.750000
v 0.656250 0.656250 -0.750000
v 0.656250 -0.656250 -0.750000
v 0.562500 0.750000 -0.562500
v -0.562500 0.750000 -0.562500
v -0.562500 0.750000 0.562500
v 0.562500 0.750000 0.562500
v 0.562500 -0.562500 0.750000
v 0.562500 0.562500 0.750000
v -0.562500 0.562500 0.750000
v -0.562500 -0.562500 0.750000
v -0.750000 -0.562500 0.562500
v -0.750000 0.562500 0.562500
v -0.750000 0.562500 -0.562500
v -0.750000 -0.562500 -0.562500
v -0.562500 -0.750000 -0.562500
v 0.562500 -0.750000 -0.562500
v 0.562500 -0.750000 0.562500
v -0.562500 -0.750000 0.562500
v 0.750000 -0.562500 -0.562500
v 0.750000 0.562500 -0.562500
v 0.750000 0.562500 0.562500
v 0.750000 -0.562500 0.562500
v -0.562500 -0.562500 -0.750000
v -0.562500 0.562500 -0.750000
v 0.562500 0.562500 -0.750000
v 0.562500 -0.562500 -0.750000
v 0.468750 0.750000 -0.468750
v -0.468750 0.750000 -0.468750
v -0.468750 0.750000 0.468750
v 0.468750 0.750000 0.468750
v 0.468750 -0.468750 0.750000
v 0.468750 0.468750 0.750000
v -0.468750 0.468750 0.750000
v -0.468750 -0.468750 0.750000
v -0.750000 -0.468750 0.468750
v -0.750000 0.468750 0.468750
v -0.750000 0.468750 -0.468750
v -0.750000 -0.468750 -0.468750
v -0.468750 -0.750000 -0.468750
v 0.468750 -0.750000 -0.468750
v 0.468750 -0.750000 0.468750
v -0.468750 -0.750000 0.468750
v 0.750000 -0.468750 -0.468750
v 0.750000 0.468750 -0.468750
v 0.750000 0.468750 0.468750
v 0.750000 -0.468750 0.468750
v -0.468750 -0.468750 -0.750000
v -0.468750 0.468750 -0.750000
v 0.468750 0.468750 -0.750000
v 0.468750 -0.468750 -0.750000
v -0.468750 0.562500 -0.468750
v 0.468750 0.562500 -0.468750
v 0.468750 0.562500 0.468750
v -0.468750 0.562500 0.468750
v 0.468750 0.468750 0.562500
v 0.468750 -0.468750 0.562500
v -0.468750 -0.468750 0.562500
v -0.468750 0.468750 0.562500
v -0.562500 -0.468750 0.468750
v -0.562500 0.468750 0.468750
v -0.562500 -0.468750 -0.468750
v -0.562500 0.468750 -0.468750
v 0.468750 -0.562500 -0.468750
v -0.468750 -0.562500 -0.468750
v -0.468750 -0.562500 0.468750
v 0.468750 -0.562500 0.468750
v 0.562500 0.468750 -0.468750
v 0.562500 -0.468750 -0.468750
v 0.562500 -0.468750 0.468750
v 0.562500 0.468750 0.468750
v -0.468750 0.468750 -0.562500
v -0.468750 -0.468750 -0.562500
v 0.468750 -0.468750 -0.562500
v 0.468750 0.468750 -0.562500
v -0.656250 0.656250 -0.656250
v 0.656250 0.656250 -0.656250
v 0.656250 0.656250 0.656250
v -0.656250 0.656250 0.656250
v 0.656250 0.656250 0.656250
v 0.656250 -0.656250 0.656250
v -0.656250 -0.656250 0.656250
v -0.656250 0.656250 0.656250
v -0.656250 -0.656250 0.656250
v -0.656250 0.656250 0.656250
v -0.656250 -0.656250 -0.656250
v -0.656250 0.656250 -0.656250
v 0.656250 -0.656250 -0.656250
v -0.656250 -0.656250 -0.656250
v -0.656250 -0.656250 0.656250
v 0.656250 -0.656250 0.656250
v 0.656250 0.656250 -0.656250
v 0.656250 -0.656250 -0.656250
v 0.656250 -0.656250 0.656250
v 0.656250 0.656250 0.656250
v -0.656250 0.656250 -0.656250
v -0.656250 -0.656250 -0.656250
v 0.656250 -0.656250 -0.656250
v 0.656250 0.656250 -0.656250
v -0.562500 0.656250 -0.562500
v 0.562500 0.656250 -0.562500
v 0.562500 0.656250 0.562500
v -0.562500 0.656250 0.562500
v 0.562500 0.562500 0.656250
v 0.562500 -0.562500 0.656250
v -0.562500 -0.562500 0.656250
v -0.562500 0.562500 0.656250
v -0.656250 -0.562500 0.562500
v -0.656250 0.562500 0.562500
v -0.656250 -0.562500 -0.562500
v -0.656250 0.562500 -0.562500
v 0.562500 -0.656250 -0.562500
v -0.562500 -0.656250 -0.562500
v -0.562500 -0.656250 0.562500
v 0.562500 -0.656250 0.562500
v 0.656250 0.562500 -0.562500
v 0.656250 -0.562500 -0.562500
v 0.656250 -0.562500 0.562500
v 0.656250 0.562500 0.562500
v -0.562500 0.562500 -0.656250
v -0.562500 -0.562500 -0.656250
v 0.562500 -0.562500 -0.656250
v 0.562500 0.562500 -0.656250
vn -0.0000 -0.0000 -1.0000
vn -0.0000 -1.0000 -0.0000
vn -0.0000 -0.0000 1.0000
vn -0.0000 1.0000 -0.0000
vn -1.0000 -0.0000 -0.0000
vn 1.0000 -0.0000 -0.0000
vt 0.328125 0.703125
vt 0.171875 0.703125
vt 0.578125 0.546875
vt 0.578125 0.703125
vt 0.578125 0.203125
vt 0.421875 0.203125
vt 0.421875 0.453125
vt 0.421875 0.296875
vt 0.328125 0.546875
vt 0.578125 0.953125
vt 0.421875 0.953125
vt 0.625000 0.500000
vt 0.875000 0.500000
vt 0.859375 0.515625
vt 0.640625 0.515625
vt 0.875000 0.750000
vt 0.859375 0.734375
vt 0.625000 0.750000
vt 0.640625 0.734375
vt 0.375000 0.750000
vt 0.609375 0.765625
vt 0.390625 0.765625
vt 0.625000 1.000000
vt 0.609375 0.984375
vt 0.375000 1.000000
vt 0.390625 0.984375
vt 0.375000 0.000000
vt 0.625000 0.000000
vt 0.609375 0.015625
vt 0.390625 0.015625
vt 0.625000 0.250000
vt 0.609375 0.234375
vt 0.375000 0.250000
vt 0.390625 0.234375
vt 0.125000 0.500000
vt 0.375000 0.500000
vt 0.359375 0.515625
vt 0.140625 0.515625
vt 0.359375 0.734375
vt 0.125000 0.750000
vt 0.140625 0.734375
vt 0.609375 0.515625
vt 0.390625 0.515625
vt 0.609375 0.734375
vt 0.390625 0.734375
vt 0.609375 0.265625
vt 0.390625 0.265625
vt 0.609375 0.484375
vt 0.390625 0.484375
vt 0.656250 0.718750
vt 0.843750 0.718750
vt 0.406250 0.468750
vt 0.593750 0.468750
vt 0.593750 0.031250
vt 0.406250 0.031250
vt 0.843750 0.531250
vt 0.593750 0.281250
vt 0.656250 0.531250
vt 0.406250 0.281250
vt 0.156250 0.718750
vt 0.343750 0.718750
vt 0.343750 0.531250
vt 0.156250 0.531250
vt 0.406250 0.968750
vt 0.593750 0.968750
vt 0.828125 0.546875
vt 0.671875 0.546875
vt 0.828125 0.703125
vt 0.671875 0.703125
vt 0.406250 0.781250
vt 0.593750 0.781250
vt 0.578125 0.796875
vt 0.421875 0.796875
vt 0.578125 0.046875
vt 0.421875 0.046875
vt 0.593750 0.218750
vt 0.406250 0.218750
vt 0.171875 0.546875
vt 0.406250 0.531250
vt 0.593750 0.531250
vt 0.421875 0.546875
vt 0.593750 0.718750
vt 0.406250 0.718750
vt 0.421875 0.703125
vt 0.578125 0.296875
vt 0.578125 0.453125
s 0
usemtl Material
f 71/1/1 72/2/1 95/2/1 96/1/1
f 74/3/2 75/4/2 100/4/2 97/3/2
f 67/5/3 68/6/3 91/6/3 92/5/3
f 80/7/4 77/8/4 102/8/4 103/7/4
f 70/9/5 71/1/5 96/1/5 93/9/5
f 63/10/6 64/11/6 87/11/6 88/10/6
f 1/12/4 5/13/4 10/14/4 9/15/4
f 5/13/4 7/16/4 11/17/4 10/14/4
f 7/16/4 3/18/4 12/19/4 11/17/4
f 3/18/4 1/12/4 9/15/4 12/19/4
f 4/20/3 3/18/3 14/21/3 13/22/3
f 3/18/3 7/23/3 15/24/3 14/21/3
f 7/23/3 8/25/3 16/26/3 15/24/3
f 8/25/3 4/20/3 13/22/3 16/26/3
f 8/27/5 7/28/5 18/29/5 17/30/5
f 7/28/5 5/31/5 19/32/5 18/29/5
f 5/31/5 6/33/5 20/34/5 19/32/5
f 6/33/5 8/27/5 17/30/5 20/34/5
f 6/35/2 2/36/2 22/37/2 21/38/2
f 2/36/2 4/20/2 23/39/2 22/37/2
f 4/20/2 8/40/2 24/41/2 23/39/2
f 8/40/2 6/35/2 21/38/2 24/41/2
f 2/36/6 1/12/6 26/42/6 25/43/6
f 1/12/6 3/18/6 27/44/6 26/42/6
f 3/18/6 4/20/6 28/45/6 27/44/6
f 4/20/6 2/36/6 25/43/6 28/45/6
f 6/33/1 5/31/1 30/46/1 29/47/1
f 5/31/1 1/12/1 31/48/1 30/46/1
f 1/12/1 2/36/1 32/49/1 31/48/1
f 2/36/1 6/33/1 29/47/1 32/49/1
f 15/24/6 16/26/6 111/26/6 112/24/6
f 36/50/3 35/51/3 132/51/3 131/50/3
f 21/38/3 22/37/3 117/37/3 118/38/3
f 56/52/6 55/53/6 152/53/6 151/52/6
f 42/54/3 41/55/3 137/55/3 138/54/3
f 14/21/2 15/24/2 112/24/2 109/21/2
f 35/51/5 34/56/5 129/56/5 132/51/5
f 55/53/4 54/57/4 149/57/4 152/53/4
f 16/26/4 13/22/4 110/22/4 111/26/4
f 33/58/6 36/50/6 131/50/6 130/58/6
f 53/59/2 56/52/2 151/52/2 150/59/2
f 27/44/1 28/45/1 123/45/1 124/44/1
f 13/22/5 14/21/5 109/21/5 110/22/5
f 48/60/3 47/61/3 144/61/3 143/60/3
f 34/56/1 33/58/1 130/58/1 129/56/1
f 54/57/5 53/59/5 150/59/5 149/57/5
f 26/42/2 27/44/2 124/44/2 121/42/2
f 47/61/6 46/62/6 141/62/6 144/61/6
f 28/45/4 25/43/4 122/43/4 123/45/4
f 45/63/5 48/60/5 143/60/5 142/63/5
f 19/32/3 20/34/3 115/34/3 116/32/3
f 40/64/5 39/65/5 136/65/5 135/64/5
f 25/43/3 26/42/3 121/42/3 122/43/3
f 46/62/1 45/63/1 142/63/1 141/62/1
f 33/58/4 34/56/4 58/66/4 57/67/4
f 34/56/4 35/51/4 59/68/4 58/66/4
f 35/51/4 36/50/4 60/69/4 59/68/4
f 36/50/4 33/58/4 57/67/4 60/69/4
f 37/70/3 38/71/3 62/72/3 61/73/3
f 38/71/3 39/65/3 63/10/3 62/72/3
f 39/65/3 40/64/3 64/11/3 63/10/3
f 40/64/3 37/70/3 61/73/3 64/11/3
f 41/55/5 42/54/5 66/74/5 65/75/5
f 42/54/5 43/76/5 67/5/5 66/74/5
f 43/76/5 44/77/5 68/6/5 67/5/5
f 44/77/5 41/55/5 65/75/5 68/6/5
f 45/63/2 46/62/2 70/9/2 69/78/2
f 46/62/2 47/61/2 71/1/2 70/9/2
f 47/61/2 48/60/2 72/2/2 71/1/2
f 48/60/2 45/63/2 69/78/2 72/2/2
f 49/79/6 50/80/6 74/3/6 73/81/6
f 50/80/6 51/82/6 75/4/6 74/3/6
f 51/82/6 52/83/6 76/84/6 75/4/6
f 52/83/6 49/79/6 73/81/6 76/84/6
f 53/59/1 54/57/1 78/85/1 77/8/1
f 54/57/1 55/53/1 79/86/1 78/85/1
f 55/53/1 56/52/1 80/7/1 79/86/1
f 56/52/1 53/59/1 77/8/1 80/7/1
f 82/67/4 81/66/4 84/68/4 83/69/4
f 86/73/3 85/72/3 88/10/3 87/11/3
f 89/75/5 90/74/5 92/5/5 91/6/5
f 94/78/2 93/9/2 96/1/2 95/2/2
f 98/81/6 97/3/6 100/4/6 99/84/6
f 102/8/1 101/85/1 104/86/1 103/7/1
f 78/85/2 79/86/2 104/86/2 101/85/2
f 75/4/1 76/84/1 99/84/1 100/4/1
f 79/86/5 80/7/5 103/7/5 104/86/5
f 57/67/3 58/66/3 81/66/3 82/67/3
f 61/73/5 62/72/5 85/72/5 86/73/5
f 60/69/5 57/67/5 82/67/5 83/69/5
f 65/75/1 66/74/1 90/74/1 89/75/1
f 64/11/4 61/73/4 86/73/4 87/11/4
f 69/78/3 70/9/3 93/9/3 94/78/3
f 58/66/6 59/68/6 84/68/6 81/66/6
f 68/6/4 65/75/4 89/75/4 91/6/4
f 73/81/3 74/3/3 97/3/3 98/81/3
f 62/72/2 63/10/2 88/10/2 85/72/2
f 72/2/6 69/78/6 94/78/6 95/2/6
f 77/8/6 78/85/6 101/85/6 102/8/6
f 59/68/1 60/69/1 83/69/1 84/68/1
f 66/74/2 67/5/2 92/5/2 90/74/2
f 76/84/4 73/81/4 98/81/4 99/84/4
f 106/15/4 105/14/4 129/56/4 130/58/4
f 105/14/4 108/17/4 132/51/4 129/56/4
f 108/17/4 107/19/4 131/50/4 132/51/4
f 107/19/4 106/15/4 130/58/4 131/50/4
f 110/22/3 109/21/3 133/71/3 134/70/3
f 109/21/3 112/24/3 136/65/3 133/71/3
f 112/24/3 111/26/3 135/64/3 136/65/3
f 111/26/3 110/22/3 134/70/3 135/64/3
f 113/30/5 114/29/5 138/54/5 137/55/5
f 114/29/5 116/32/5 140/76/5 138/54/5
f 116/32/5 115/34/5 139/77/5 140/76/5
f 115/34/5 113/30/5 137/55/5 139/77/5
f 118/38/2 117/37/2 141/62/2 142/63/2
f 117/37/2 120/39/2 144/61/2 141/62/2
f 120/39/2 119/41/2 143/60/2 144/61/2
f 119/41/2 118/38/2 142/63/2 143/60/2
f 122/43/6 121/42/6 145/80/6 146/79/6
f 121/42/6 124/44/6 148/82/6 145/80/6
f 124/44/6 123/45/6 147/83/6 148/82/6
f 123/45/6 122/43/6 146/79/6 147/83/6
f 126/47/1 125/46/1 149/57/1 150/59/1
f 125/46/1 128/48/1 152/53/1 149/57/1
f 128/48/1 127/49/1 151/52/1 152/53/1
f 127/49/1 126/47/1 150/59/1 151/52/1
f 41/55/2 44/77/2 139/77/2 137/55/2
f 24/41/6 21/38/6 118/38/6 119/41/6
f 43/76/4 42/54/4 138/54/4 140/76/4
f 22/37/5 23/39/5 120/39/5 117/37/5
f 50/80/1 49/79/1 146/79/1 145/80/1
f 29/47/6 30/46/6 125/46/6 126/47/6
f 44/77/1 43/76/1 140/76/1 139/77/1
f 9/15/3 10/14/3 105/14/3 106/15/3
f 23/39/1 24/41/1 119/41/1 120/39/1
f 49/79/2 52/83/2 147/83/2 146/79/2
f 32/49/4 29/47/4 126/47/4 127/49/4
f 12/19/5 9/15/5 106/15/5 107/19/5
f 51/82/4 50/80/4 145/80/4 148/82/4
f 30/46/2 31/48/2 128/48/2 125/46/2
f 10/14/6 11/17/6 108/17/6 105/14/6
f 38/71/6 37/70/6 134/70/6 133/71/6
f 52/83/3 51/82/3 148/82/3 147/83/3
f 17/30/1 18/29/1 114/29/1 113/30/1
f 31/48/5 32/49/5 127/49/5 128/48/5
f 11/17/1 12/19/1 107/19/1 108/17/1
f 37/70/2 40/64/2 135/64/2 134/70/2
f 20/34/4 17/30/4 113/30/4 115/34/4
f 39/65/4 38/71/4 133/71/4 136/65/4
f 18/29/2 19/32/2 116/32/2 114/29/2
