# Blender 4.3.0
# www.blender.org
mtllib solar_panel.mtl
o Cube
v -0.636390 0.050808 0.648384
v -0.636390 0.699192 -0.648384
v -0.750000 0.075000 -0.675000
v 0.636390 0.050808 0.648384
v 0.636390 0.699192 -0.648384
v 0.750000 0.075000 -0.675000
v -0.750000 0.075000 0.432295
v 0.750000 0.075000 0.432295
v -0.750000 0.628647 -0.675000
v 0.750000 0.628647 -0.675000
v -0.750000 0.750000 -0.750000
v -0.750000 0.000000 -0.750000
v -0.750000 0.000000 0.750000
v 0.750000 0.000000 0.750000
v 0.750000 0.000000 -0.750000
v 0.750000 0.750000 -0.750000
v -0.212130 0.050808 0.648384
v 0.212130 0.050808 0.648384
v -0.212130 0.699192 -0.648384
v 0.212130 0.699192 -0.648384
v -0.636390 0.483064 -0.216128
v -0.636390 0.266936 0.216128
v 0.636390 0.483064 -0.216128
v 0.636390 0.266936 0.216128
v 0.212130 0.266936 0.216128
v -0.212130 0.266936 0.216128
v 0.212130 0.483064 -0.216128
v -0.212130 0.483064 -0.216128
v -0.242745 0.496756 -0.243511
v -0.242745 0.685501 -0.621001
v -0.605775 0.685501 -0.621001
v -0.605775 0.496756 -0.243511
v -0.242745 0.064499 0.621001
v -0.242745 0.253244 0.243511
v -0.605775 0.253244 0.243511
v -0.605775 0.064499 0.621002
v -0.242745 0.280627 0.188745
v -0.242745 0.469373 -0.188745
v -0.605775 0.469373 -0.188745
v -0.605775 0.280627 0.188745
v 0.605775 0.064499 0.621001
v 0.605775 0.253244 0.243511
v 0.242745 0.253244 0.243511
v 0.242745 0.064499 0.621001
v 0.181515 0.064499 0.621001
v 0.181515 0.253244 0.243511
v -0.181515 0.253244 0.243511
v -0.181515 0.064499 0.621001
v 0.605775 0.280627 0.188745
v 0.605775 0.469373 -0.188745
v 0.242745 0.469373 -0.188745
v 0.242745 0.280627 0.188745
v 0.181515 0.280627 0.188745
v 0.181515 0.469373 -0.188745
v -0.181515 0.469373 -0.188745
v -0.181515 0.280627 0.188745
v 0.605775 0.496756 -0.243511
v 0.605775 0.685501 -0.621002
v 0.242745 0.685501 -0.621001
v 0.242745 0.496756 -0.243511
v 0.181515 0.496756 -0.243511
v 0.181515 0.685501 -0.621001
v -0.181515 0.685501 -0.621001
v -0.181515 0.496756 -0.243511
v -0.242745 0.660013 -0.633745
v -0.242745 0.471268 -0.256255
v -0.605775 0.471268 -0.256255
v -0.605775 0.660013 -0.633745
v -0.242745 0.227757 0.230767
v -0.242745 0.039012 0.608258
v -0.605775 0.039012 0.608258
v -0.605775 0.227757 0.230767
v -0.242745 0.443885 -0.201489
v -0.242745 0.255140 0.176002
v -0.605775 0.255140 0.176002
v -0.605775 0.443885 -0.201489
v 0.605775 0.227757 0.230767
v 0.605775 0.039012 0.608258
v 0.242745 0.039012 0.608258
v 0.242745 0.227757 0.230767
v 0.181515 0.227757 0.230767
v 0.181515 0.039012 0.608258
v -0.181515 0.039012 0.608258
v -0.181515 0.227757 0.230767
v 0.605775 0.443885 -0.201489
v 0.605775 0.255140 0.176001
v 0.242745 0.255140 0.176002
v 0.242745 0.443885 -0.201489
v 0.181515 0.443885 -0.201489
v 0.181515 0.255140 0.176002
v -0.181515 0.255140 0.176002
v -0.181515 0.443885 -0.201489
v 0.605775 0.660013 -0.633745
v 0.605775 0.471268 -0.256255
v 0.242745 0.471268 -0.256255
v 0.242745 0.660013 -0.633745
v 0.181515 0.660013 -0.633745
v 0.181515 0.471268 -0.256255
v -0.181515 0.471268 -0.256255
v -0.181515 0.660013 -0.633745
vn -0.0000 -0.0000 -1.0000
vn -0.0000 -0.8944 -0.4472
vn -0.0000 -1.0000 -0.0000
vn -0.0000 -0.0000 1.0000
vn -1.0000 -0.0000 -0.0000
vn -0.0000 0.8944 0.4472
vn 1.0000 -0.0000 -0.0000
vn -0.0000 1.0000 -0.0000
vn -0.0000 -0.4472 0.8944
vn -0.0000 0.4472 -0.8944
vt 0.375000 0.750000
vt 0.625000 0.750000
vt 0.625000 1.000000
vt 0.375000 1.000000
vt 0.400000 0.552951
vt 0.584549 0.737500
vt 0.584549 0.012500
vt 0.400000 0.197049
vt 0.125000 0.500000
vt 0.375000 0.500000
vt 0.125000 0.750000
vt 0.400000 0.737500
vt 0.400000 0.012500
vt 0.468542 0.322857
vt 0.531458 0.306133
vt 0.391936 0.259096
vt 0.391936 0.336365
vt 0.391936 0.413635
vt 0.391936 0.490904
vt 0.375000 0.250000
vt 0.608064 0.683356
vt 0.608064 0.477785
vt 0.608064 0.272215
vt 0.608064 0.066644
vt 0.625000 0.000000
vt 0.463979 0.555055
vt 0.536021 0.619205
vt 0.536021 0.130795
vt 0.463979 0.194945
vt 0.375000 0.000000
vt 0.459415 0.324431
vt 0.459415 0.425569
vt 0.396500 0.408846
vt 0.396500 0.341154
vt 0.531458 0.603961
vt 0.468542 0.549889
vt 0.603500 0.259303
vt 0.540585 0.279928
vt 0.531458 0.466228
vt 0.603500 0.084974
vt 0.468542 0.445603
vt 0.536021 0.456402
vt 0.603500 0.490697
vt 0.540585 0.470072
vt 0.603500 0.665026
vt 0.540585 0.610954
vt 0.463979 0.435018
vt 0.459415 0.441758
vt 0.396500 0.421133
vt 0.459415 0.542897
vt 0.396500 0.488824
vt 0.459415 0.207103
vt 0.396500 0.261176
vt 0.463979 0.314982
vt 0.459415 0.308242
vt 0.396500 0.328867
vt 0.531458 0.146039
vt 0.468542 0.200111
vt 0.536021 0.293598
vt 0.531458 0.283773
vt 0.468542 0.304397
vt 0.531458 0.443867
vt 0.468542 0.427143
vt 0.540585 0.139046
vt 0.603500 0.287836
vt 0.540585 0.304559
vt 0.603500 0.462164
vt 0.540585 0.445441
s 0
usemtl Material
f 12/1/1 11/2/1 16/3/1 15/4/1
f 7/5/2 9/6/2 10/7/2 8/8/2
f 14/9/3 13/10/3 12/1/3 15/11/3
f 9/6/4 3/12/4 6/13/4 10/7/4
f 53/14/5 54/15/5 89/15/5 90/14/5
f 4/16/6 18/17/6 17/18/6 1/19/6 13/10/6 14/20/6
f 2/21/6 19/22/6 20/23/6 5/24/6 16/25/6 11/2/6
f 1/19/6 22/26/6 21/27/6 2/21/6 11/2/6 13/10/6
f 5/24/6 23/28/6 24/29/6 4/16/6 14/20/6 16/25/6
f 3/12/5 9/6/5 11/2/5 12/1/5
f 7/5/5 3/12/5 12/1/5 13/10/5
f 9/6/5 7/5/5 13/10/5 11/2/5
f 6/13/7 8/8/7 14/20/7 15/30/7
f 10/7/7 6/13/7 15/30/7 16/25/7
f 8/8/7 10/7/7 16/25/7 14/20/7
f 3/12/8 7/5/8 8/8/8 6/13/8
f 46/31/9 47/32/9 84/32/9 81/31/9
f 48/33/10 45/34/10 82/34/10 83/33/10
f 39/35/7 40/36/7 75/36/7 76/35/7
f 59/37/7 60/38/7 95/38/7 96/37/7
f 45/34/5 46/31/5 81/31/5 82/34/5
f 38/39/9 39/35/9 76/35/9 73/39/9
f 58/40/9 59/37/9 96/37/9 93/40/9
f 40/36/10 37/41/10 74/41/10 75/36/10
f 28/42/6 19/22/6 30/43/6 29/44/6
f 19/22/6 2/21/6 31/45/6 30/43/6
f 2/21/6 21/27/6 32/46/6 31/45/6
f 21/27/6 28/42/6 29/44/6 32/46/6
f 17/18/6 26/47/6 34/48/6 33/49/6
f 26/47/6 22/26/6 35/50/6 34/48/6
f 22/26/6 1/19/6 36/51/6 35/50/6
f 1/19/6 17/18/6 33/49/6 36/51/6
f 26/47/6 28/42/6 38/39/6 37/41/6
f 28/42/6 21/27/6 39/35/6 38/39/6
f 21/27/6 22/26/6 40/36/6 39/35/6
f 22/26/6 26/47/6 37/41/6 40/36/6
f 4/16/6 24/29/6 42/52/6 41/53/6
f 24/29/6 25/54/6 43/55/6 42/52/6
f 25/54/6 18/17/6 44/56/6 43/55/6
f 18/17/6 4/16/6 41/53/6 44/56/6
f 18/17/6 25/54/6 46/31/6 45/34/6
f 25/54/6 26/47/6 47/32/6 46/31/6
f 26/47/6 17/18/6 48/33/6 47/32/6
f 17/18/6 18/17/6 45/34/6 48/33/6
f 24/29/6 23/28/6 50/57/6 49/58/6
f 23/28/6 27/59/6 51/60/6 50/57/6
f 27/59/6 25/54/6 52/61/6 51/60/6
f 25/54/6 24/29/6 49/58/6 52/61/6
f 25/54/6 27/59/6 54/15/6 53/14/6
f 27/59/6 28/42/6 55/62/6 54/15/6
f 28/42/6 26/47/6 56/63/6 55/62/6
f 26/47/6 25/54/6 53/14/6 56/63/6
f 23/28/6 5/24/6 58/40/6 57/64/6
f 5/24/6 20/23/6 59/37/6 58/40/6
f 20/23/6 27/59/6 60/38/6 59/37/6
f 27/59/6 23/28/6 57/64/6 60/38/6
f 27/59/6 20/23/6 62/65/6 61/66/6
f 20/23/6 19/22/6 63/67/6 62/65/6
f 19/22/6 28/42/6 64/68/6 63/67/6
f 28/42/6 27/59/6 61/66/6 64/68/6
f 66/44/6 65/43/6 68/45/6 67/46/6
f 70/49/6 69/48/6 72/50/6 71/51/6
f 74/41/6 73/39/6 76/35/6 75/36/6
f 78/53/6 77/52/6 80/55/6 79/56/6
f 82/34/6 81/31/6 84/32/6 83/33/6
f 86/58/6 85/57/6 88/60/6 87/61/6
f 90/14/6 89/15/6 92/62/6 91/63/6
f 94/64/6 93/40/6 96/37/6 95/38/6
f 98/66/6 97/65/6 100/67/6 99/68/6
f 33/49/5 34/48/5 69/48/5 70/49/5
f 47/32/7 48/33/7 83/33/7 84/32/7
f 56/63/10 53/14/10 90/14/10 91/63/10
f 36/51/10 33/49/10 70/49/10 71/51/10
f 54/15/9 55/62/9 92/62/9 89/15/9
f 34/48/9 35/50/9 72/50/9 69/48/9
f 61/66/5 62/65/5 97/65/5 98/66/5
f 41/53/5 42/52/5 77/52/5 78/53/5
f 55/62/7 56/63/7 91/63/7 92/62/7
f 35/50/7 36/51/7 71/51/7 72/50/7
f 64/68/10 61/66/10 98/66/10 99/68/10
f 44/56/10 41/53/10 78/53/10 79/56/10
f 62/65/9 63/67/9 100/67/9 97/65/9
f 42/52/9 43/55/9 80/55/9 77/52/9
f 49/58/5 50/57/5 85/57/5 86/58/5
f 63/67/7 64/68/7 99/68/7 100/67/7
f 29/44/5 30/43/5 65/43/5 66/44/5
f 43/55/7 44/56/7 79/56/7 80/55/7
f 52/61/10 49/58/10 86/58/10 87/61/10
f 32/46/10 29/44/10 66/44/10 67/46/10
f 50/57/9 51/60/9 88/60/9 85/57/9
f 30/43/9 31/45/9 68/45/9 65/43/9
f 57/64/5 58/40/5 93/40/5 94/64/5
f 37/41/5 38/39/5 73/39/5 74/41/5
f 51/60/7 52/61/7 87/61/7 88/60/7
f 31/45/7 32/46/7 67/46/7 68/45/7
f 60/38/10 57/64/10 94/64/10 95/38/10
